<?xml version="1.0" encoding="UTF-8" standalone="no"?>
<svg
   xmlns:dc="http://purl.org/dc/elements/1.1/"
   xmlns:cc="http://creativecommons.org/ns#"
   xmlns:rdf="http://www.w3.org/1999/02/22-rdf-syntax-ns#"
   xmlns:svg="http://www.w3.org/2000/svg"
   xmlns="http://www.w3.org/2000/svg"
   version="1.1"
   id="svg3718"
   xml:space="preserve"
   width="927.38409"
   height="213.34946"
   viewBox="0 0 927.38406 213.34946"><metadata
     id="metadata3724"><rdf:RDF><cc:Work
         rdf:about=""><dc:format>image/svg+xml</dc:format><dc:type
           rdf:resource="http://purl.org/dc/dcmitype/StillImage" /><dc:title></dc:title></cc:Work></rdf:RDF></metadata><defs
     id="defs3722"><clipPath
       clipPathUnits="userSpaceOnUse"
       id="clipPath3746"><path
         d="M 0,195.655 H 861.683 V 0 H 0 Z"
         id="path3744" /></clipPath></defs><g
     id="g3726"
     transform="matrix(1.3333333,0,0,-1.3333333,-100.25457,244.87199)"
     style="opacity:1"><g
       id="g3728"
       transform="translate(296.0123,24.015)"><path
         d="m 0,0 h -5.962 l -8.572,24.782 h 5.403 l 6.15,-18.726 6.147,18.726 h 5.403 l 6.15,-18.726 6.15,18.726 h 5.402 L 17.699,0 H 11.738 L 5.867,16.956 Z"
         style="fill:#ffffff;fill-opacity:1;fill-rule:nonzero;stroke:none"
         id="path3730" /></g><g
       id="g3732"
       transform="translate(331.7642,24.015)"><path
         d="m 0,0 h -5.962 l -8.572,24.782 h 5.403 l 6.15,-18.726 6.147,18.726 h 5.402 l 6.151,-18.726 6.149,18.726 h 5.403 L 17.699,0 H 11.738 L 5.867,16.956 Z"
         style="fill:#ffffff;fill-opacity:1;fill-rule:nonzero;stroke:none"
         id="path3734" /></g><g
       id="g3736"
       transform="translate(367.1783,24.015)"><path
         d="m 0,0 h -5.962 l -8.572,24.782 h 5.403 L -2.98,6.056 3.166,24.782 H 8.569 L 14.72,6.056 20.869,24.782 h 5.403 L 17.7,0 h -5.962 l -5.87,16.956 z"
         style="fill:#ffffff;fill-opacity:1;fill-rule:nonzero;stroke:none"
         id="path3738" /></g><g
       id="g3740"><g
         id="g3742"
         clip-path="url(#clipPath3746)"><g
           id="g3748"
           transform="translate(395.6129,24.6673)"><path
             d="m 0,0 c -0.669,0.682 -1.001,1.507 -1.001,2.47 0,0.96 0.332,1.776 1.001,2.444 0.668,0.668 1.48,1.001 2.444,1.001 0.963,0 1.785,-0.333 2.469,-1.001 C 5.598,4.246 5.939,3.43 5.939,2.47 5.939,1.507 5.598,0.682 4.913,0 4.229,-0.684 3.407,-1.025 2.444,-1.025 1.48,-1.025 0.668,-0.684 0,0"
             style="fill:#ffffff;fill-opacity:1;fill-rule:nonzero;stroke:none"
             id="path3750" /></g><g
           id="g3752"
           transform="translate(411.8472,24.015)"><path
             d="m 0,0 -9.969,24.782 h 5.404 L 2.98,6.056 10.527,24.782 H 15.93 L 5.962,0 Z"
             style="fill:#ffffff;fill-opacity:1;fill-rule:nonzero;stroke:none"
             id="path3754" /></g><g
           id="g3756"
           transform="translate(435.9068,30.5599)"><path
             d="m 0,0 c 1.475,-1.506 3.345,-2.259 5.613,-2.259 2.266,0 4.136,0.753 5.611,2.259 1.474,1.507 2.215,3.455 2.215,5.846 0,2.391 -0.741,4.34 -2.215,5.845 -1.475,1.506 -3.345,2.26 -5.611,2.26 C 3.345,13.951 1.475,13.197 0,11.691 -1.475,10.186 -2.212,8.237 -2.212,5.846 -2.212,3.455 -1.475,1.507 0,0 m 14.93,-3.216 c -2.486,-2.466 -5.592,-3.702 -9.317,-3.702 -3.727,0 -6.834,1.236 -9.318,3.702 -2.482,2.47 -3.725,5.491 -3.725,9.062 0,3.571 1.243,6.59 3.725,9.058 2.484,2.47 5.591,3.703 9.318,3.703 3.725,0 6.831,-1.233 9.317,-3.703 2.481,-2.468 3.724,-5.487 3.724,-9.058 0,-3.571 -1.243,-6.592 -3.724,-9.062"
             style="fill:#ffffff;fill-opacity:1;fill-rule:nonzero;stroke:none"
             id="path3758" /></g><path
           d="m 464.294,24.015 h -5.219 v 24.782 h 5.219 z m -4.891,29.718 c -0.65,0.652 -0.977,1.428 -0.977,2.328 0,0.9 0.327,1.679 0.977,2.331 0.652,0.652 1.427,0.978 2.331,0.978 0.9,0 1.676,-0.326 2.328,-0.978 0.652,-0.652 0.979,-1.431 0.979,-2.331 0,-0.9 -0.327,-1.676 -0.979,-2.328 -0.652,-0.654 -1.428,-0.98 -2.328,-0.98 -0.904,0 -1.679,0.326 -2.331,0.98"
           style="fill:#ffffff;fill-opacity:1;fill-rule:nonzero;stroke:none"
           id="path3760" /><g
           id="g3762"
           transform="translate(481.439,23.642)"><path
             d="m 0,0 c -3.449,0 -6.414,1.173 -8.899,3.517 -2.482,2.344 -3.724,5.41 -3.724,9.2 0,3.787 1.296,6.872 3.888,9.247 2.594,2.375 5.754,3.561 9.478,3.561 3.728,0 6.878,-1.287 9.457,-3.866 L 7.125,17.888 c -2.143,1.864 -4.302,2.796 -6.473,2.796 -2.174,0 -4.06,-0.725 -5.66,-2.168 -1.6,-1.444 -2.397,-3.308 -2.397,-5.589 0,-2.284 0.791,-4.217 2.375,-5.798 1.581,-1.585 3.53,-2.379 5.845,-2.379 2.313,0 4.494,1.058 6.542,3.169 L 10.433,4.565 C 7.42,1.521 3.943,0 0,0"
             style="fill:#ffffff;fill-opacity:1;fill-rule:nonzero;stroke:none"
             id="path3764" /></g><g
           id="g3766"
           transform="translate(499.5084,38.223)"><path
             d="m 0,0 h 14.208 c 0,2.08 -0.652,3.68 -1.955,4.797 C 10.948,5.914 9.342,6.473 7.431,6.473 5.522,6.473 3.807,5.893 2.285,4.729 0.763,3.561 0,1.985 0,0 M 19.426,-4.102 H 0 c 0.126,-1.8 0.948,-3.251 2.47,-4.355 1.521,-1.101 3.259,-1.653 5.217,-1.653 3.104,0 5.466,0.979 7.08,2.937 l 2.98,-3.264 c -2.67,-2.764 -6.146,-4.144 -10.433,-4.144 -3.476,0 -6.435,1.157 -8.873,3.47 -2.438,2.312 -3.656,5.419 -3.656,9.316 0,3.897 1.24,6.994 3.725,9.294 2.485,2.297 5.413,3.445 8.782,3.445 3.367,0 6.232,-1.016 8.595,-3.049 2.359,-2.034 3.539,-4.839 3.539,-8.41 z"
             style="fill:#ffffff;fill-opacity:1;fill-rule:nonzero;stroke:none"
             id="path3768" /></g><g
           id="g3770"
           transform="translate(529.5054,50.8461)"><path
             d="M 0,0 V -2.049 H 6.521 V -6.241 H 0 v -20.59 h -5.218 v 20.59 h -3.119 v 4.192 h 3.119 v 1.907 c 0,2.611 0.784,4.682 2.353,6.219 1.569,1.538 3.465,2.307 5.682,2.307 2.222,0 4.245,-0.822 6.081,-2.47 L 6.756,2.233 C 5.729,3.322 4.659,3.865 3.539,3.865 2.422,3.865 1.553,3.517 0.932,2.817 0.311,2.117 0,1.18 0,0"
             style="fill:#ffffff;fill-opacity:1;fill-rule:nonzero;stroke:none"
             id="path3772" /></g><g
           id="g3774"
           transform="translate(556.9888,35.3802)"><path
             d="M 0,0 V 13.417 H 5.218 V -11.365 H 0 v 4.518 c -0.838,-1.522 -1.996,-2.717 -3.471,-3.587 -1.474,-0.869 -3.068,-1.304 -4.775,-1.304 -2.793,0 -5.052,0.853 -6.777,2.563 -1.723,1.707 -2.586,4.176 -2.586,7.404 v 15.188 h 5.218 V -0.186 c 0,-4.565 1.895,-6.846 5.682,-6.846 1.802,0 3.37,0.596 4.707,1.792 C -0.669,-4.045 0,-2.297 0,0"
             style="fill:#ffffff;fill-opacity:1;fill-rule:nonzero;stroke:none"
             id="path3776" /></g><path
           d="m 573.572,24.015 h -5.219 v 34.563 h 5.219 z"
           style="fill:#ffffff;fill-opacity:1;fill-rule:nonzero;stroke:none"
           id="path3778" /><g
           id="g3780"
           transform="translate(580.023,24.6673)"><path
             d="m 0,0 c -0.669,0.682 -1.001,1.507 -1.001,2.47 0,0.96 0.332,1.776 1.001,2.444 0.668,0.668 1.48,1.001 2.444,1.001 0.963,0 1.785,-0.333 2.469,-1.001 C 5.598,4.246 5.939,3.43 5.939,2.47 5.939,1.507 5.598,0.682 4.913,0 4.229,-0.684 3.407,-1.025 2.444,-1.025 1.48,-1.025 0.668,-0.684 0,0"
             style="fill:#ffffff;fill-opacity:1;fill-rule:nonzero;stroke:none"
             id="path3782" /></g><path
           d="m 596.581,24.015 h -5.218 v 24.782 h 5.218 z m -4.892,29.718 c -0.649,0.652 -0.977,1.428 -0.977,2.328 0,0.9 0.328,1.679 0.977,2.331 0.652,0.652 1.428,0.978 2.331,0.978 0.9,0 1.676,-0.326 2.328,-0.978 0.653,-0.652 0.98,-1.431 0.98,-2.331 0,-0.9 -0.327,-1.676 -0.98,-2.328 -0.652,-0.654 -1.428,-0.98 -2.328,-0.98 -0.903,0 -1.679,0.326 -2.331,0.98"
           style="fill:#ffffff;fill-opacity:1;fill-rule:nonzero;stroke:none"
           id="path3784" /><g
           id="g3786"
           transform="translate(608.5289,30.5599)"><path
             d="m 0,0 c 1.475,-1.506 3.345,-2.259 5.613,-2.259 2.266,0 4.136,0.753 5.611,2.259 1.474,1.507 2.214,3.455 2.214,5.846 0,2.391 -0.74,4.34 -2.214,5.845 -1.475,1.506 -3.345,2.26 -5.611,2.26 C 3.345,13.951 1.475,13.197 0,11.691 -1.475,10.186 -2.212,8.237 -2.212,5.846 -2.212,3.455 -1.475,1.507 0,0 m 14.93,-3.216 c -2.486,-2.466 -5.592,-3.702 -9.317,-3.702 -3.727,0 -6.834,1.236 -9.319,3.702 -2.481,2.47 -3.724,5.491 -3.724,9.062 0,3.571 1.243,6.59 3.724,9.058 2.485,2.47 5.592,3.703 9.319,3.703 3.725,0 6.831,-1.233 9.317,-3.703 2.481,-2.468 3.723,-5.487 3.723,-9.058 0,-3.571 -1.242,-6.592 -3.723,-9.062"
             style="fill:#ffffff;fill-opacity:1;fill-rule:nonzero;stroke:none"
             id="path3788" /></g><g
           id="g3790"
           transform="translate(404.689,114.9642)"><path
             d="m 0,0 c 0,11.794 -7.584,17.272 -15.729,17.272 -8.006,0 -15.74,-5.478 -15.74,-17.272 0,-11.667 7.734,-17.421 15.74,-17.421 C -7.584,-17.421 0,-11.805 0,0 m 21.355,0 c 0,-21.642 -16.151,-37.084 -37.084,-37.084 -20.795,0 -37.095,15.442 -37.095,37.084 0,21.631 16.3,36.947 37.095,36.947 C 5.204,36.947 21.355,21.631 21.355,0"
             style="fill:#ffffff;fill-opacity:1;fill-rule:nonzero;stroke:none"
             id="path3792" /></g><path
           d="m 435.057,149.807 h 21.345 V 79.985 h -21.345 z m 10.535,33.847 c 7.024,0 12.64,-5.616 12.64,-12.502 0,-6.887 -5.616,-12.503 -12.64,-12.503 -6.749,0 -12.365,5.616 -12.365,12.503 0,6.886 5.616,12.502 12.365,12.502"
           style="fill:#ffffff;fill-opacity:1;fill-rule:nonzero;stroke:none"
           id="path3794" /><g
           id="g3796"
           transform="translate(487.4576,114.8158)"><path
             d="m 0,0 c 0,-11.096 7.446,-17.272 16.3,-17.272 8.282,0 12.914,5.193 14.47,10.397 L 49.587,-12.64 C 46.498,-24.856 34.979,-36.936 16.3,-36.936 c -20.796,0 -37.519,15.305 -37.519,36.936 0,21.779 16.3,37.096 36.81,37.096 19.251,0 30.484,-11.805 33.572,-24.307 L 30.061,7.035 C 28.517,12.365 24.307,17.421 16.014,17.421 7.16,17.421 0,11.244 0,0"
             style="fill:#ffffff;fill-opacity:1;fill-rule:nonzero;stroke:none"
             id="path3798" /></g><g
           id="g3800"
           transform="translate(648.2437,131.8255)"><path
             d="M 0,0 V -51.841 H -21.355 V 0 h -11.096 v 17.981 h 11.096 v 6.04 c 0,16.014 9.688,26.973 26.697,26.973 4.346,0 8.144,-0.573 10.112,-1.545 V 32.028 C 14.333,32.303 12.503,32.726 9.128,32.726 5.342,32.726 0,31.044 0,23.312 V 17.981 H 15.168 V 0 Z"
             style="fill:#ffffff;fill-opacity:1;fill-rule:nonzero;stroke:none"
             id="path3802" /></g><g
           id="g3804"
           transform="translate(717.3111,87.0082)"><path
             d="m 0,0 c -3.66,-6.039 -11.668,-8.567 -18.691,-8.567 -16.997,0 -26.549,12.353 -26.549,27.247 v 44.119 h 21.356 V 23.175 c 0,-6.738 3.649,-12.079 11.233,-12.079 7.172,0 11.668,4.919 11.668,11.942 V 62.799 H 20.372 V 5.479 c 0,-6.326 0.561,-11.381 0.698,-12.502 H 0.561 C 0.274,-5.765 0,-1.83 0,0"
             style="fill:#ffffff;fill-opacity:1;fill-rule:nonzero;stroke:none"
             id="path3806" /></g><path
           d="m 749.374,181.687 h 21.355 V 79.985 h -21.355 z"
           style="fill:#ffffff;fill-opacity:1;fill-rule:nonzero;stroke:none"
           id="path3808" /><g
           id="g3810"
           transform="translate(578.023,135.0511)"><path
             d="M 0,0 C 10.111,0 13.761,-6.463 14.046,-11.805 H -13.91 C -13.487,-6.6 -8.991,0 0,0 m 13.992,-33.005 c -2.376,-3.69 -6.319,-6.047 -12.448,-6.047 -8.293,0 -15.454,5.617 -15.877,13.487 h 48.604 c 0.148,0.423 0.422,3.649 0.422,6.6 0,22.477 -13.338,35.825 -34.98,35.825 -18.118,0 -34.842,-14.332 -34.842,-36.809 0,-23.46 17.147,-37.221 36.387,-37.221 13.686,0 23.369,6.066 28.643,14.387 z"
             style="fill:#ffffff;fill-opacity:1;fill-rule:nonzero;stroke:none"
             id="path3812" /></g><g
           id="g3814"
           transform="translate(325.9537,149.807)"><path
             d="m 0,0 c 0,-27.337 -5.896,-44 -11.218,-49.923 -0.588,-0.527 -1.355,-0.858 -2.208,-0.858 -0.891,0 -1.696,0.357 -2.293,0.93 -4.966,5.712 -11.429,22.626 -11.429,49.851 h -21.437 c 0,-35.234 10.957,-71.053 35.016,-71.053 24.048,0 35.005,35.819 35.005,71.053 z"
             style="fill:#ffffff;fill-opacity:1;fill-rule:nonzero;stroke:none"
             id="path3816" /></g><g
           id="g3818"
           transform="translate(188.8082,98.808)"><path
             d="m 0,0 c -5.603,0 -10.865,2.175 -14.805,6.121 l -9.257,9.25 c -2.618,2.618 -7.252,2.618 -9.87,0 l -9.257,-9.25 c -7.88,-7.892 -21.731,-7.892 -29.611,0 l -9.257,9.25 c -2.699,2.693 -7.198,2.788 -9.87,0.212 l -9.829,-9.611 c -2.727,-2.72 -7.144,-2.652 -9.87,0.095 -2.7,2.754 -2.645,7.178 0.109,9.871 l 9.829,9.624 c 8.139,7.975 21.39,7.819 29.502,-0.32 l 9.256,-9.25 c 2.618,-2.618 7.253,-2.618 9.871,0 l 9.257,9.25 c 7.879,7.893 21.73,7.893 29.61,0 l 9.257,-9.25 c 2.618,-2.618 7.253,-2.618 9.871,0 l 10.415,10.415 c 2.727,2.727 7.144,2.727 9.87,0 2.727,-2.726 2.727,-7.143 0,-9.87 L 14.806,6.121 C 10.866,2.175 5.604,0 0,0"
             style="fill:#ffffff;fill-opacity:1;fill-rule:nonzero;stroke:none"
             id="path3820" /></g><g
           id="g3822"
           transform="translate(210.8663,76.5853)"><path
             d="m 0,0 h -128.695 c -3.858,0 -6.98,3.122 -6.98,6.98 0,3.858 3.122,6.98 6.98,6.98 H 0 c 3.858,0 6.98,-3.122 6.98,-6.98 C 6.98,3.122 3.858,0 0,0"
             style="fill:#ffffff;fill-opacity:1;fill-rule:nonzero;stroke:none"
             id="path3824" /></g><g
           id="g3826"
           transform="translate(190.1431,31.6693)"><path
             d="M 0,0 C -1.473,0 -2.945,0.463 -4.199,1.404 L -29.843,20.681 -54.641,1.656 c -2.495,-1.894 -5.971,-1.928 -8.466,-0.02 L -88.478,20.852 -103.651,8.909 c -3.04,-2.351 -7.417,-1.861 -9.803,1.172 -2.385,3.027 -1.867,7.417 1.159,9.803 l 19.414,15.268 c 2.494,1.97 6.012,2.004 8.534,0.076 l 25.425,-19.257 24.785,19.018 c 2.495,1.881 5.958,1.929 8.452,0.033 L -0.177,15.848 14.778,28.091 c 2.972,2.427 7.375,2.004 9.816,-0.988 2.44,-2.98 2.004,-7.376 -0.982,-9.824 L 4.417,1.574 C 3.136,0.524 1.568,0 0,0"
             style="fill:#ffffff;fill-opacity:1;fill-rule:nonzero;stroke:none"
             id="path3828" /></g><g
           id="g3830"
           transform="translate(210.7535,154.3329)"><path
             d="m 0,0 h -15.408 v 17.996 h -41.88 V 0 h -14.006 v 17.996 h -41.88 V 0 h -15.409 c -3.858,0 -6.979,-3.122 -6.979,-6.98 0,-3.858 3.121,-6.98 6.979,-6.98 h 29.369 V 4.036 h 13.96 V -13.96 h 9.017 21.196 11.713 V 4.036 h 13.96 V -13.96 H 0 c 3.858,0 6.98,3.122 6.98,6.98 C 6.98,-3.122 3.858,0 0,0"
             style="fill:#ffffff;fill-opacity:1;fill-rule:nonzero;stroke:none"
             id="path3832" /></g></g></g></g></svg>